<mxfile host="app.diagrams.net" modified="2022-04-26T11:38:40.844Z" agent="5.0 (Windows NT 10.0; Win64; x64) AppleWebKit/537.36 (KHTML, like Gecko) Chrome/100.0.4896.127 Safari/537.36" etag="cN_PMUYdmYPJ9bJHmUhC" version="17.4.6" type="github">
  <diagram id="U2s0QOV88MzSlLAJDFJ9" name="Page-1">
    <mxGraphModel dx="1174" dy="352" grid="1" gridSize="10" guides="1" tooltips="1" connect="1" arrows="1" fold="1" page="1" pageScale="1" pageWidth="850" pageHeight="1100" math="0" shadow="0">
      <root>
        <mxCell id="0" />
        <mxCell id="1" parent="0" />
        <mxCell id="pKUZOnAECEKYtIy3mJTc-1" value="&lt;font style=&quot;font-size: 40px&quot; color=&quot;#0000c4&quot;&gt;foreach (Recipepe R)&lt;/font&gt;" style="text;html=1;align=center;verticalAlign=middle;resizable=0;points=[];autosize=1;strokeColor=none;fillColor=none;" vertex="1" parent="1">
          <mxGeometry x="100" y="120" width="400" height="30" as="geometry" />
        </mxCell>
        <mxCell id="pKUZOnAECEKYtIy3mJTc-2" value="enact(R) :&amp;nbsp;" style="text;html=1;align=center;verticalAlign=middle;resizable=0;points=[];autosize=1;strokeColor=none;fillColor=none;fontSize=40;fontColor=#0000C4;" vertex="1" parent="1">
          <mxGeometry x="150" y="210" width="200" height="50" as="geometry" />
        </mxCell>
        <mxCell id="pKUZOnAECEKYtIy3mJTc-3" value="for 1 Sentient / Population&lt;br&gt;&amp;nbsp; &amp;nbsp; &amp;nbsp; &amp;nbsp; &amp;nbsp; &amp;nbsp; &amp;nbsp; &amp;nbsp; &amp;nbsp; &amp;nbsp; &amp;nbsp; &amp;nbsp; &amp;nbsp; &amp;nbsp; &amp;nbsp; &amp;nbsp;/Distance Radius" style="text;html=1;align=center;verticalAlign=middle;resizable=0;points=[];autosize=1;strokeColor=none;fillColor=none;fontSize=40;fontColor=#0000C4;" vertex="1" parent="1">
          <mxGeometry x="-40" y="270" width="660" height="100" as="geometry" />
        </mxCell>
        <mxCell id="pKUZOnAECEKYtIy3mJTc-5" value="dusk" style="text;html=1;align=center;verticalAlign=middle;resizable=0;points=[];autosize=1;strokeColor=none;fillColor=none;fontSize=20;fontColor=#0000C4;" vertex="1" parent="1">
          <mxGeometry x="350" y="190" width="60" height="30" as="geometry" />
        </mxCell>
        <mxCell id="pKUZOnAECEKYtIy3mJTc-6" value="dawn" style="text;html=1;align=center;verticalAlign=middle;resizable=0;points=[];autosize=1;strokeColor=none;fillColor=none;fontSize=20;fontColor=#0000C4;" vertex="1" parent="1">
          <mxGeometry x="410" y="220" width="60" height="30" as="geometry" />
        </mxCell>
        <mxCell id="pKUZOnAECEKYtIy3mJTc-7" value="day" style="text;html=1;align=center;verticalAlign=middle;resizable=0;points=[];autosize=1;strokeColor=none;fillColor=none;fontSize=20;fontColor=#0000C4;" vertex="1" parent="1">
          <mxGeometry x="350" y="240" width="50" height="30" as="geometry" />
        </mxCell>
        <mxCell id="pKUZOnAECEKYtIy3mJTc-8" value="" style="endArrow=classic;html=1;rounded=0;fontSize=20;fontColor=#0000C4;strokeColor=#0000C4;dashed=1;entryX=0.167;entryY=0.667;entryDx=0;entryDy=0;entryPerimeter=0;" edge="1" parent="1" target="pKUZOnAECEKYtIy3mJTc-6">
          <mxGeometry width="50" height="50" relative="1" as="geometry">
            <mxPoint x="390" y="260" as="sourcePoint" />
            <mxPoint x="420" y="250" as="targetPoint" />
          </mxGeometry>
        </mxCell>
        <mxCell id="pKUZOnAECEKYtIy3mJTc-9" value="" style="endArrow=classic;html=1;rounded=0;fontSize=20;fontColor=#0000C4;strokeColor=#0000C4;dashed=1;entryX=0.833;entryY=0.667;entryDx=0;entryDy=0;entryPerimeter=0;" edge="1" parent="1" target="pKUZOnAECEKYtIy3mJTc-5">
          <mxGeometry width="50" height="50" relative="1" as="geometry">
            <mxPoint x="420" y="229.99" as="sourcePoint" />
            <mxPoint x="450.02" y="210" as="targetPoint" />
          </mxGeometry>
        </mxCell>
      </root>
    </mxGraphModel>
  </diagram>
</mxfile>
